<?xml version="1.0" encoding="UTF-8"?>
<!DOCTYPE svg PUBLIC "-//W3C//DTD SVG 1.1//EN" "http://www.w3.org/Graphics/SVG/1.1/DTD/svg11.dtd">
<!-- Creator: CorelDRAW X8 -->
<svg xmlns="http://www.w3.org/2000/svg" xml:space="preserve" width="100%" height="100%" version="1.1" style="shape-rendering:geometricPrecision; text-rendering:geometricPrecision; image-rendering:optimizeQuality; fill-rule:evenodd; clip-rule:evenodd"
viewBox="0 0 1100 1100"
 xmlns:xlink="http://www.w3.org/1999/xlink">
 <defs>
  <style type="text/css">
   <![CDATA[
    .str1 {stroke:#F7A817;stroke-width:9.99923}
    .str0 {stroke:red;stroke-width:2.36221}
    .fil1 {fill:#F7A817}
    .fil3 {fill:#F7A817}
    .fil0 {fill:#FCC963}
    .fil2 {fill:white}
   ]]>
  </style>
 </defs>
 <g id="Layer_x0020_1">
  <metadata id="CorelCorpID_0Corel-Layer"/>
  <g id="_2023574257056">
   <g>
    <path class="fil0" d="M1037 550c0,-43 -30,-74 -69,-82 34,-22 47,-64 31,-104 -15,-37 -55,-59 -95,-51 24,-32 18,-77 -11,-106 -29,-29 -74,-32 -106,-11 8,-40 -14,-80 -51,-95 -37,-16 -82,-3 -104,31 -8,-39 -42,-69 -82,-69 -43,0 -74,30 -82,69 -22,-34 -64,-47 -104,-31 -37,15 -59,55 -51,95 -32,-24 -77,-18 -106,11 -29,29 -35,74 -11,106 -40,-8 -80,14 -95,51 -16,37 -3,82 31,104 -39,8 -69,42 -69,82 0,43 30,74 69,82 -34,22 -47,64 -31,104 15,37 55,59 95,51 -21,32 -18,77 11,106 29,29 74,32 106,11 -8,40 14,80 51,95 37,16 82,3 104,-31 8,39 42,69 82,69 43,0 74,-30 82,-69 22,34 64,47 104,31 37,-15 59,-55 51,-95 32,24 77,18 106,-11 29,-29 32,-74 11,-106 40,8 80,-14 95,-51 16,-37 3,-82 -31,-104 39,-8 69,-39 69,-82z"/>
    <path class="fil1" d="M550 1050c-37,0 -72,-21 -88,-56 -26,24 -66,32 -103,19 -38,-14 -59,-48 -62,-85 -34,13 -74,5 -101,-24 -26,-27 -34,-67 -24,-101 -34,-3 -69,-27 -85,-62 -16,-34 -8,-74 19,-103 -35,-16 -56,-51 -56,-88 0,-37 21,-72 56,-88 -24,-26 -32,-66 -19,-103 16,-35 51,-59 85,-62 -10,-34 -2,-74 24,-101 27,-26 67,-34 101,-24 3,-37 24,-71 62,-85 34,-16 74,-8 103,19 16,-35 51,-56 88,-56 37,0 72,21 88,56 26,-24 66,-32 103,-19 35,16 59,48 62,85 34,-13 74,-5 101,24 26,27 34,67 24,101 37,3 71,24 85,62 13,37 8,74 -19,103 35,16 56,51 56,88 0,37 -21,72 -56,88 24,26 32,66 19,103 -16,35 -48,59 -85,62 13,34 5,74 -24,101 -27,26 -67,34 -101,24 -3,37 -24,71 -62,85 -37,13 -74,8 -103,-19 -16,32 -51,56 -88,56zm-82 -96l0 0c8,0 13,6 13,11 5,34 34,58 69,58 35,0 64,-24 69,-58 0,-5 5,-11 11,-11 5,0 10,0 13,6 19,29 56,39 88,26 32,-13 50,-48 42,-80 0,-5 0,-10 6,-13 5,-3 10,-3 16,0 29,19 66,16 90,-8 24,-24 27,-61 8,-90 -3,-6 -3,-11 0,-16 3,-6 8,-8 13,-6 35,8 67,-10 80,-42 13,-32 3,-69 -26,-88 -3,-3 -6,-8 -6,-13 0,-6 6,-11 11,-11 34,-5 58,-34 58,-69 0,-35 -24,-64 -58,-69 -5,0 -11,-5 -11,-11 0,-5 0,-10 6,-13 29,-19 39,-56 26,-88 -13,-32 -48,-50 -80,-42 -5,0 -10,0 -13,-6 -3,-5 -3,-10 0,-16 19,-29 16,-66 -8,-90 -24,-24 -61,-27 -90,-8 -6,3 -11,3 -16,0 -6,-3 -8,-8 -6,-13 8,-35 -10,-67 -42,-80 -32,-13 -69,-3 -88,26 -3,6 -8,8 -13,6 -6,0 -11,-6 -11,-11 -5,-34 -34,-58 -69,-58 -35,0 -64,24 -69,58 0,5 -5,11 -11,11 -5,0 -10,0 -13,-6 -19,-29 -56,-39 -88,-26 -32,13 -50,48 -42,80 0,5 0,10 -6,13 -5,3 -10,3 -16,0 -26,-19 -66,-16 -90,8 -24,24 -27,61 -8,90 3,6 3,11 0,16 -3,6 -8,8 -13,6 -35,-8 -67,10 -80,42 -13,32 -3,69 26,88 6,3 8,8 6,13 -3,6 -6,11 -11,11 -34,5 -58,34 -58,69 0,35 24,64 58,69 5,0 11,5 11,11 0,5 0,10 -6,13 -29,19 -39,56 -26,88 13,32 48,50 80,42 5,0 10,0 13,6 3,5 3,10 0,16 -19,29 -16,66 8,90 24,24 61,27 90,8 6,-3 11,-3 16,0 6,3 8,8 6,13 -8,35 10,67 42,80 32,13 69,3 88,-26 0,-3 5,-6 11,-6z"/>
   </g>
   <polygon class="fil2" points="464,449 514,455 555,499 576,524 595,482 618,456 658,467 672,499 658,537 641,567 633,574 687,635 719,717 703,777 656,834 588,861 501,857 444,800 396,757 396,709 433,695 432,642 471,627 465,573 502,553 453,496 "/>
   <polygon class="fil2 str0" points="568,274 611,239 657,237 682,278 670,349 604,396 547,405 458,339 459,273 491,241 550,252 "/>
   <path class="fil3 str1" d="M631 564l-45 -45c2,-6 15,-39 18,-44 19,-25 54,-9 54,14 0,12 0,12 -6,24 -2,6 -5,12 -7,17 -4,11 -9,24 -14,34zm-171 -77l0 -6c0,-14 15,-26 29,-26 17,0 27,14 36,23l90 90c20,20 40,38 58,60 9,10 17,24 22,38 20,51 7,111 -30,148 -12,13 -24,20 -40,29 -46,23 -102,16 -144,-14 -12,-9 -58,-57 -74,-72 -24,-24 -9,-54 18,-54 18,0 31,19 47,35 4,4 10,12 17,12 5,0 7,-6 4,-11 -1,-2 -7,-7 -9,-9 -7,-8 -43,-42 -46,-48 -13,-20 1,-46 26,-46 15,0 28,17 40,30 6,5 32,34 37,34 4,0 14,-4 1,-17l-64 -63c-34,-33 8,-67 33,-51 14,10 70,72 75,72 7,0 8,-1 8,-7 0,-5 -65,-67 -69,-71 -12,-12 -23,-23 -35,-35 -9,-9 -30,-26 -30,-41zm-15 -3c0,32 34,45 49,67 -28,0 -59,32 -33,72 -23,0 -42,19 -42,45 0,10 4,14 5,21 -12,0 -22,3 -30,11 -8,8 -13,20 -13,34 0,22 19,35 31,47 25,26 52,57 83,73 25,13 48,16 78,16 31,0 71,-17 92,-37 11,-10 8,-6 18,-18 3,-4 6,-7 9,-11 31,-42 35,-107 11,-155 -4,-9 -14,-25 -21,-32 -4,-5 -8,-10 -13,-15 -6,-6 -22,-20 -26,-27 3,-15 30,-65 30,-83 0,-42 -57,-61 -81,-23 -5,7 -13,30 -17,38l-37 -36c-19,-19 -25,-30 -52,-30 -15,0 -31,12 -37,26 -1,3 -4,13 -4,17z"/>
   <path class="fil3 str1" d="M460 297l0 -7c0,-23 21,-46 44,-46 15,0 27,10 35,17 8,7 13,11 20,19 2,3 4,5 8,6 6,0 13,-13 27,-25 15,-12 32,-25 55,-12 30,17 30,52 17,80 -2,4 -3,5 -5,8 -10,20 -31,39 -50,50 -29,18 -59,18 -88,0 -12,-7 -20,-13 -29,-22 -14,-14 -34,-41 -34,-68zm168 -67l7 0c7,1 15,3 22,7 19,12 32,32 32,58 0,31 -21,61 -40,81 -18,17 -49,39 -83,39 -28,0 -61,-19 -79,-38 -11,-10 -19,-20 -26,-33 -13,-20 -15,-33 -15,-55 0,-16 9,-32 17,-40 15,-15 26,-19 46,-19 24,0 51,32 59,37 3,-2 3,-3 6,-6l19 -17c10,-8 22,-13 35,-14z"/>
  </g>
 </g>
</svg>
